<svg height='30px' width='30px' xmlns="http://www.w3.org/2000/svg" xmlns:xlink="http://www.w3.org/1999/xlink" viewBox="0 0 100 100" version="1.1" x="0px" y="0px"><title>globe</title><g stroke-width="2" stroke="#575756" fill-rule="evenodd"><path d="M50,95 C74.813,95 95,74.812 95,50 C95,25.188 74.813,5 50,5 C25.187,5 5,25.188 5,50 C5,74.812 25.188,95 50,95 Z M61.555,90.179 C65.974,86.27 69.663,80.194 72.166,72.749 C76.045,73.434 79.739,74.307 83.224,75.352 C77.843,82.389 70.279,87.666 61.555,90.179 Z M85.149,72.608 C81.371,71.425 77.346,70.443 73.113,69.681 C74.647,64.182 75.554,58.058 75.684,51.591 L91.775,51.591 C91.484,59.314 89.09,66.502 85.149,72.608 Z M91.775,48.408 L75.685,48.408 C75.555,41.941 74.648,35.816 73.113,30.317 C77.347,29.556 81.372,28.573 85.15,27.389 C89.09,33.496 91.484,40.686 91.775,48.408 Z M83.224,24.647 C79.74,25.692 76.045,26.565 72.166,27.248 C69.663,19.804 65.973,13.728 61.553,9.819 C70.278,12.333 77.842,17.609 83.224,24.647 Z M51.592,8.299 C58.946,9.258 65.335,16.796 69.061,27.76 C63.506,28.579 57.635,29.02 51.592,29.088 L51.592,8.299 Z M51.592,32.271 C57.966,32.202 64.154,31.717 70.008,30.83 C71.487,36.133 72.374,42.091 72.502,48.408 L51.592,48.408 L51.592,32.271 Z M51.592,51.592 L72.502,51.592 C72.374,57.907 71.487,63.866 70.008,69.17 C64.154,68.28 57.966,67.799 51.592,67.727 L51.592,51.592 Z M51.592,70.911 C57.635,70.978 63.506,71.419 69.06,72.239 C65.335,83.204 58.947,90.74 51.592,91.699 L51.592,70.911 Z M48.408,91.699 C41.054,90.74 34.665,83.204 30.939,72.239 C36.494,71.419 42.365,70.978 48.408,70.911 L48.408,91.699 Z M48.408,67.727 C42.034,67.799 35.846,68.281 29.992,69.17 C28.513,63.866 27.626,57.907 27.497,51.592 L48.408,51.592 L48.408,67.727 Z M48.408,48.408 L27.497,48.408 C27.626,42.091 28.513,36.133 29.992,30.83 C35.846,31.717 42.035,32.202 48.408,32.271 L48.408,48.408 Z M48.408,8.299 L48.408,29.089 C42.365,29.021 36.494,28.58 30.939,27.761 C34.664,16.796 41.054,9.258 48.408,8.299 Z M38.447,9.819 C34.027,13.728 30.338,19.804 27.835,27.248 C23.955,26.566 20.261,25.692 16.775,24.647 C22.158,17.609 29.722,12.333 38.447,9.819 Z M14.851,27.391 C18.629,28.574 22.654,29.557 26.888,30.318 C25.353,35.817 24.446,41.942 24.317,48.409 L8.224,48.409 C8.515,40.686 10.909,33.496 14.851,27.391 Z M8.224,51.592 L24.317,51.592 C24.446,58.059 25.353,64.183 26.888,69.681 C22.654,70.442 18.628,71.426 14.85,72.609 C10.909,66.502 8.515,59.313 8.224,51.592 Z M27.835,72.749 C30.337,80.193 34.026,86.27 38.446,90.179 C29.72,87.666 22.157,82.389 16.775,75.352 C20.261,74.307 23.955,73.434 27.835,72.749 Z" fill="#000000" fill-rule="nonzero"></path></g></svg>