<?xml version="1.0" encoding="utf-8"?>
<!-- Generator: Adobe Illustrator 19.0.0, SVG Export Plug-In . SVG Version: 6.00 Build 0)  -->
<svg version="1.1" id="图层_1" xmlns="http://www.w3.org/2000/svg" xmlns:xlink="http://www.w3.org/1999/xlink" x="0px" y="0px"
	 viewBox="-109 222.3520508 739.3928833 117.6479492" style="enable-background:new -109 222.3520508 739.3928833 117.6479492;"
	 xml:space="preserve">
<style type="text/css">
	.st0{fill:#292165;}
</style>
<path id="XMLID_3_" class="st0" d="M142.9721832,340c-0.4775391,0-0.956543-0.1142578-1.3955078-0.3447266l-34.8803711-18.3378906
	l-34.8803711,18.3378906c-1.0107422,0.53125-2.2358398,0.4423828-3.1591797-0.2285156
	c-0.9238281-0.6708984-1.3867188-1.8085938-1.1938477-2.9335938l6.6616211-38.8408203l-28.21875-27.5063477
	c-0.8173828-0.7973633-1.1118164-1.9892578-0.7587891-3.0756836c0.3525391-1.0859375,1.2915039-1.8774414,2.4213867-2.0415039
	l38.9975586-5.6669922l17.4399414-35.3374023c0.5053711-1.0239258,1.5483398-1.6723633,2.6904297-1.6723633
	s2.1850586,0.6484375,2.6904297,1.6723633l17.4399414,35.3374023l38.9975739,5.6669922
	c1.1298828,0.1640625,2.0688477,0.9555664,2.4213867,2.0415039c0.3530273,1.0864258,0.0585938,2.2783203-0.7587891,3.0756836
	l-28.2187653,27.5063477l6.6616211,38.8408203c0.1928711,1.125-0.2700195,2.2626953-1.1938477,2.9335938
	C144.2133942,339.8066406,143.5942535,340,142.9721832,340z"/>
<path id="XMLID_5_" class="st0" d="M-11.0270691,340c-0.4775391,0-0.9570313-0.1142578-1.3964844-0.3447266l-34.8798828-18.3378906
	l-34.8798523,18.3378906c-1.0117188,0.53125-2.2353516,0.4423828-3.1601563-0.2285156
	c-0.9238281-0.6708984-1.3857422-1.8085938-1.1933594-2.9335938l6.6611328-38.8408203l-28.2177734-27.5063477
	c-0.8183594-0.7973633-1.1123047-1.9892578-0.7597656-3.0756836c0.3535156-1.0859375,1.2919922-1.8774414,2.421875-2.0415039
	l38.9970703-5.6669922l17.4403992-35.3374023c0.5058594-1.0239258,1.5488281-1.6723633,2.6904297-1.6723633
	s2.1845703,0.6484375,2.6904297,1.6723633l17.4404297,35.3374023l38.9970703,5.6669922
	c1.1298828,0.1640625,2.0683594,0.9555664,2.421875,2.0415039c0.3525391,1.0864258,0.0585938,2.2783203-0.7597656,3.0756836
	l-28.2177734,27.5063477l6.6611328,38.8408203c0.1923828,1.125-0.2695313,2.2626953-1.1933594,2.9335938
	C-9.7858582,339.8066406-10.4049988,340-11.0270691,340z"/>
<path id="XMLID_4_" class="st0" d="M296.9728088,340c-0.4775391,0-0.9570313-0.1142578-1.3964844-0.3447266l-34.8798828-18.3378906
	l-34.8798828,18.3378906c-1.0117188,0.53125-2.2353516,0.4423828-3.1601563-0.2285156
	c-0.9238281-0.6708984-1.3857422-1.8085938-1.1933594-2.9335938l6.6611328-38.8408203l-28.2177734-27.5063477
	c-0.8183594-0.7973633-1.1123047-1.9892578-0.7597656-3.0756836c0.3535156-1.0859375,1.2919922-1.8774414,2.421875-2.0415039
	l38.9970703-5.6669922l17.4404297-35.3374023c0.5058594-1.0239258,1.5488281-1.6723633,2.6904297-1.6723633
	s2.1845703,0.6484375,2.6904297,1.6723633l17.4404297,35.3374023l38.9970703,5.6669922
	c1.1298828,0.1640625,2.0683594,0.9555664,2.421875,2.0415039c0.3525391,1.0864258,0.0585938,2.2783203-0.7597656,3.0756836
	l-28.2177734,27.5063477l6.6611328,38.8408203c0.1923828,1.125-0.2695313,2.2626953-1.1933594,2.9335938
	C298.2140198,339.8066406,297.5948792,340,296.9728088,340z M260.6964417,314.9277344
	c0.4794922,0,0.9589844,0.1152344,1.3964844,0.3447266l30.8955078,16.2431641l-5.9003906-34.4033203
	c-0.1669922-0.9726563,0.15625-1.9658203,0.8632813-2.6552734l24.9951172-24.3647461l-34.5429688-5.0195313
	c-0.9765625-0.1420898-1.8212891-0.7553711-2.2587891-1.6411133l-15.4482422-31.3012695l-15.4482422,31.3012695
	c-0.4375,0.8857422-1.2822266,1.4990234-2.2587891,1.6411133l-34.5429688,5.0195313l24.9951172,24.3647461
	c0.7070313,0.6894531,1.0302734,1.6826172,0.8632813,2.6552734l-5.9003906,34.4033203l30.8955078-16.2431641
	C259.7374573,315.0429688,260.2169495,314.9277344,260.6964417,314.9277344z"/>
<path id="XMLID_8_" class="st0" d="M450.9726563,340c-0.4775391,0-0.9570313-0.1142578-1.3964844-0.3447266l-34.8798828-18.3378906
	l-34.8798828,18.3378906c-1.0117188,0.53125-2.2353516,0.4423828-3.1601563-0.2285156
	c-0.9238281-0.6708984-1.3857422-1.8085938-1.1933594-2.9335938l6.6611328-38.8408203l-28.2177429-27.5063477
	c-0.8183594-0.7973633-1.1123047-1.9892578-0.7597656-3.0756836c0.3535156-1.0859375,1.2919922-1.8774414,2.421875-2.0415039
	l38.9970398-5.6669922l17.4404297-35.3374023c0.5058594-1.0239258,1.5488281-1.6723633,2.6904297-1.6723633
	s2.1845703,0.6484375,2.6904297,1.6723633l17.4404297,35.3374023l38.9970703,5.6669922
	c1.1298828,0.1640625,2.0683594,0.9555664,2.421875,2.0415039c0.3525391,1.0864258,0.0585938,2.2783203-0.7597656,3.0756836
	l-28.2177734,27.5063477l6.6611328,38.8408203c0.1923828,1.125-0.2695313,2.2626953-1.1933594,2.9335938
	C452.2138672,339.8066406,451.5947266,340,450.9726563,340z M414.6962891,314.9277344
	c0.4794922,0,0.9589844,0.1152344,1.3964844,0.3447266l30.8955078,16.2431641l-5.9003906-34.4033203
	c-0.1669922-0.9726563,0.15625-1.9658203,0.8632813-2.6552734l24.9951172-24.3647461l-34.5429688-5.0195313
	c-0.9765625-0.1420898-1.8212891-0.7553711-2.2587891-1.6411133l-15.4482422-31.3012695l-15.4482422,31.3012695
	c-0.4375,0.8857422-1.2822266,1.4990234-2.2587891,1.6411133l-34.5429688,5.0195313l24.9951172,24.3647461
	c0.7070313,0.6894531,1.0302734,1.6826172,0.8632813,2.6552734l-5.9003906,34.4033203l30.8955078-16.2431641
	C413.7373047,315.0429688,414.2167969,314.9277344,414.6962891,314.9277344z"/>
<path id="XMLID_9_" class="st0" d="M604.7595215,340c-0.4775391,0-0.9570313-0.1142578-1.3964844-0.3447266l-34.8798828-18.3378906
	l-34.8798828,18.3378906c-1.0117188,0.53125-2.2353516,0.4423828-3.1601563-0.2285156
	c-0.9238281-0.6708984-1.3857422-1.8085938-1.1933594-2.9335938l6.6611328-38.8408203l-28.2177429-27.5063477
	c-0.8183594-0.7973633-1.1123047-1.9892578-0.7597656-3.0756836c0.3535156-1.0859375,1.2919922-1.8774414,2.421875-2.0415039
	l38.9970398-5.6669922l17.4404297-35.3374023c0.5058594-1.0239258,1.5488281-1.6723633,2.6904297-1.6723633
	s2.1845703,0.6484375,2.6904297,1.6723633l17.4404297,35.3374023l38.9970703,5.6669922
	c1.1298828,0.1640625,2.0683594,0.9555664,2.421875,2.0415039c0.3525391,1.0864258,0.0585938,2.2783203-0.7597656,3.0756836
	l-28.2177734,27.5063477l6.6611328,38.8408203c0.1923828,1.125-0.2695313,2.2626953-1.1933594,2.9335938
	C606.0007324,339.8066406,605.3815918,340,604.7595215,340z M568.4831543,314.9277344
	c0.4794922,0,0.9589844,0.1152344,1.3964844,0.3447266l30.8955078,16.2431641l-5.9003906-34.4033203
	c-0.1669922-0.9726563,0.15625-1.9658203,0.8632813-2.6552734l24.9951172-24.3647461l-34.5429688-5.0195313
	c-0.9765625-0.1420898-1.8212891-0.7553711-2.2587891-1.6411133l-15.4482422-31.3012695l-15.4482422,31.3012695
	c-0.4375,0.8857422-1.2822266,1.4990234-2.2587891,1.6411133l-34.5429688,5.0195313l24.9951172,24.3647461
	c0.7070313,0.6894531,1.0302734,1.6826172,0.8632813,2.6552734l-5.9003906,34.4033203l30.8955078-16.2431641
	C567.5241699,315.0429688,568.0036621,314.9277344,568.4831543,314.9277344z"/>
</svg>
