<?xml version="1.0" encoding="utf-8"?>
<!-- Generator: Adobe Illustrator 19.0.0, SVG Export Plug-In . SVG Version: 6.00 Build 0)  -->
<svg version="1.1" id="图层_1" xmlns="http://www.w3.org/2000/svg" xmlns:xlink="http://www.w3.org/1999/xlink" x="0px" y="0px"
	 viewBox="0 0 739.3928833 117.6479492" enable-background="new 0 0 739.3928833 117.6479492" xml:space="preserve">
<path id="XMLID_2_" fill="#292165" d="M97.9721909,117.6479492c-0.4775391,0-0.956543-0.1142578-1.3955078-0.3447266
	L61.6963081,98.965332l-34.8803711,18.3378906c-1.0112305,0.53125-2.2353516,0.4423828-3.1591797-0.2285156
	s-1.3867188-1.8085938-1.1938477-2.9335938l6.6616211-38.8408203l-28.21875-27.5063477
	c-0.8173828-0.7973633-1.1118164-1.9892578-0.7587891-3.0756836c0.3525391-1.0859375,1.2915039-1.8774414,2.4213867-2.0415039
	l38.9975586-5.6669922L59.0058784,1.6723633C59.5112495,0.6484375,60.5542183,0,61.6963081,0
	s2.1850586,0.6484375,2.6904335,1.6723633L81.826683,37.0097656l38.9975586,5.6669922
	c1.1298828,0.1640625,2.0688477,0.9555664,2.4213867,2.0415039c0.3530273,1.0864258,0.0585938,2.2783203-0.7587891,3.0756836
	l-28.21875,27.5063477l6.6616211,38.8408203c0.1928711,1.125-0.2700195,2.2626953-1.1938477,2.9335938
	C99.2134018,117.4545898,98.5942612,117.6479492,97.9721909,117.6479492z"/>
<path id="XMLID_3_" fill="#292165" d="M251.9721832,117.6479492c-0.4775391,0-0.956543-0.1142578-1.3955078-0.3447266
	L215.6963043,98.965332l-34.8803711,18.3378906c-1.0107422,0.53125-2.2358398,0.4423828-3.1591797-0.2285156
	c-0.9238281-0.6708984-1.3867188-1.8085938-1.1938477-2.9335938l6.6616211-38.8408203l-28.21875-27.5063477
	c-0.8173828-0.7973633-1.1118164-1.9892578-0.7587891-3.0756836c0.3525391-1.0859375,1.2915039-1.8774414,2.4213867-2.0415039
	l38.9975586-5.6669922l17.4399414-35.3374023C213.5112457,0.6484375,214.5542145,0,215.6963043,0
	s2.1850586,0.6484375,2.6904297,1.6723633l17.4399414,35.3374023l38.9975739,5.6669922
	c1.1298828,0.1640625,2.0688477,0.9555664,2.4213867,2.0415039c0.3530273,1.0864258,0.0585938,2.2783203-0.7587891,3.0756836
	L248.2680817,75.300293l6.6616211,38.8408203c0.1928711,1.125-0.2700195,2.2626953-1.1938477,2.9335938
	C253.2133942,117.4545898,252.5942535,117.6479492,251.9721832,117.6479492z"/>
<path id="XMLID_6_" fill="#292165" d="M405.9726868,117.6479492c-0.4775391,0-0.9570313-0.1142578-1.3964844-0.3447266
	L369.6963196,98.965332l-34.8803711,18.3378906c-1.0112305,0.53125-2.2358398,0.4423828-3.1591797-0.2285156
	c-0.9238281-0.6708984-1.3867188-1.8085938-1.1938477-2.9335938l6.6616211-38.8408203l-28.21875-27.5063477
	c-0.8173828-0.7973633-1.1118164-1.9892578-0.7587891-3.0756836c0.3525391-1.0859375,1.2915039-1.8774414,2.4213867-2.0415039
	l38.9975586-5.6669922l17.4399414-35.3374023C367.5117493,0.6484375,368.554718,0,369.6963196,0
	s2.1845703,0.6484375,2.6904297,1.6723633l17.4404297,35.3374023l38.9970703,5.6669922
	c1.1298828,0.1640625,2.0683594,0.9555664,2.421875,2.0415039c0.3525391,1.0864258,0.0585938,2.2783203-0.7597656,3.0756836
	L402.2685852,75.300293l6.6611328,38.8408203c0.1923828,1.125-0.2695313,2.2626953-1.1933594,2.9335938
	C407.2138977,117.4545898,406.5947571,117.6479492,405.9726868,117.6479492z"/>
<path id="XMLID_5_" fill="#292165" d="M559.9726563,117.6479492c-0.4775391,0-0.9570313-0.1142578-1.3964844-0.3447266
	L523.6962891,98.965332l-34.8798523,18.3378906c-1.0117188,0.53125-2.2353516,0.4423828-3.1601563-0.2285156
	c-0.9238281-0.6708984-1.3857422-1.8085938-1.1933594-2.9335938l6.6611328-38.8408203l-28.2177734-27.5063477
	c-0.8183594-0.7973633-1.1123047-1.9892578-0.7597656-3.0756836c0.3535156-1.0859375,1.2919922-1.8774414,2.421875-2.0415039
	l38.9970703-5.6669922l17.4403992-35.3374023C521.5117188,0.6484375,522.5546875,0,523.6962891,0
	s2.1845703,0.6484375,2.6904297,1.6723633l17.4404297,35.3374023l38.9970703,5.6669922
	c1.1298828,0.1640625,2.0683594,0.9555664,2.421875,2.0415039c0.3525391,1.0864258,0.0585938,2.2783203-0.7597656,3.0756836
	L556.2685547,75.300293l6.6611328,38.8408203c0.1923828,1.125-0.2695313,2.2626953-1.1933594,2.9335938
	C561.2138672,117.4545898,560.5947266,117.6479492,559.9726563,117.6479492z"/>
<path id="XMLID_7_" fill="#292165" d="M713.9726563,117.6479492c-0.4775391,0-0.9570313-0.1142578-1.3964844-0.3447266
	L677.6962891,98.965332l-34.8798828,18.3378906c-1.0117188,0.53125-2.2353516,0.4423828-3.1601563-0.2285156
	c-0.9238281-0.6708984-1.3857422-1.8085938-1.1933594-2.9335938l6.6611328-38.8408203L616.90625,47.7939453
	c-0.8183594-0.7973633-1.1123047-1.9892578-0.7597656-3.0756836c0.3535156-1.0859375,1.2919922-1.8774414,2.421875-2.0415039
	l38.9970703-5.6669922l17.4404297-35.3374023C675.5117188,0.6484375,676.5546875,0,677.6962891,0
	s2.1845703,0.6484375,2.6904297,1.6723633l17.4404297,35.3374023l38.9970703,5.6669922
	c1.1298828,0.1640625,2.0683594,0.9555664,2.421875,2.0415039c0.3525391,1.0864258,0.0585938,2.2783203-0.7597656,3.0756836
	L710.2685547,75.300293l6.6611328,38.8408203c0.1923828,1.125-0.2695313,2.2626953-1.1933594,2.9335938
	C715.2138672,117.4545898,714.5947266,117.6479492,713.9726563,117.6479492z"/>
</svg>
